<svg width="131" height="31" viewBox="0 0 131 31" fill="none" xmlns="http://www.w3.org/2000/svg">
<path d="M2.27391 5.91217H16.1902V8.25104H4.7947V14.0463H15.3326V16.2552H4.7947V22.7261H16.3851V25H2.27391V5.91217ZM19.0114 11.0837L22.7276 22.4142L26.6128 11.0837H29.1726L23.9231 25H21.4283L16.2957 11.0837H19.0114ZM35.3721 10.7718C36.3597 10.7718 37.3169 11.0057 38.2438 11.4735C39.1706 11.9326 39.8766 12.5303 40.3617 13.2666C40.8295 13.9683 41.1414 14.7869 41.2973 15.7225C41.4359 16.3635 41.5052 17.3857 41.5052 18.789H31.3051C31.3484 20.201 31.6819 21.3358 32.3056 22.1933C32.9293 23.0423 33.8952 23.4667 35.2032 23.4667C36.4246 23.4667 37.3992 23.0639 38.1268 22.2583C38.5426 21.7905 38.8371 21.2491 39.0104 20.6341H41.3103C41.2496 21.1452 41.0461 21.7169 40.6996 22.3493C40.3617 22.973 39.9806 23.4841 39.5561 23.8825C38.8458 24.5755 37.9666 25.0433 36.9184 25.2859C36.3553 25.4245 35.7186 25.4938 35.0083 25.4938C33.2758 25.4938 31.8075 24.8657 30.6034 23.6097C29.3993 22.3449 28.7973 20.5778 28.7973 18.3082C28.7973 16.0733 29.4037 14.2585 30.6164 12.8638C31.8292 11.4692 33.4144 10.7718 35.3721 10.7718ZM39.1013 16.9309C39.0061 15.9174 38.7852 15.1074 38.4387 14.501C37.7976 13.3749 36.7278 12.8119 35.2292 12.8119C34.1551 12.8119 33.2542 13.2017 32.5265 13.9813C31.7989 14.7523 31.4134 15.7354 31.3701 16.9309H39.1013ZM42.7931 11.0837H45.0151V13.0587C45.6734 12.2445 46.3707 11.6597 47.1071 11.3046C47.8434 10.9494 48.662 10.7718 49.5629 10.7718C51.5379 10.7718 52.872 11.4605 53.565 12.8378C53.9461 13.5915 54.1367 14.67 54.1367 16.0733V25H51.7588V16.2292C51.7588 15.3803 51.6332 14.6959 51.382 14.1762C50.9662 13.3099 50.2126 12.8768 49.1211 12.8768C48.5667 12.8768 48.1119 12.9331 47.7568 13.0457C47.1157 13.2363 46.5527 13.6175 46.0676 14.1892C45.6777 14.6483 45.4222 15.1247 45.3009 15.6185C45.1883 16.1036 45.132 16.8009 45.132 17.7105V25H42.7931V11.0837ZM56.0093 11.1487H58.3872V25H56.0093V11.1487ZM56.0093 5.91217H58.3872V8.56289H56.0093V5.91217ZM60.3378 11.0837H62.5598V13.0587C63.2181 12.2445 63.9154 11.6597 64.6518 11.3046C65.3881 10.9494 66.2067 10.7718 67.1076 10.7718C69.0826 10.7718 70.4167 11.4605 71.1097 12.8378C71.4908 13.5915 71.6814 14.67 71.6814 16.0733V25H69.3035V16.2292C69.3035 15.3803 69.1779 14.6959 68.9267 14.1762C68.5109 13.3099 67.7573 12.8768 66.6658 12.8768C66.1114 12.8768 65.6566 12.9331 65.3014 13.0457C64.6604 13.2363 64.0974 13.6175 63.6123 14.1892C63.2224 14.6483 62.9669 15.1247 62.8456 15.6185C62.733 16.1036 62.6767 16.8009 62.6767 17.7105V25H60.3378V11.0837ZM78.4657 10.8368C79.5572 10.8368 80.51 11.1053 81.3243 11.6424C81.7661 11.9456 82.2166 12.3874 82.6757 12.9678V11.2136H84.8326V23.8695C84.8326 25.6367 84.5728 27.0314 84.053 28.0535C83.0828 29.942 81.2507 30.8862 78.5566 30.8862C77.058 30.8862 75.7976 30.5483 74.7755 29.8727C73.7533 29.2056 73.1816 28.1575 73.0603 26.7282H75.4381C75.5508 27.3519 75.776 27.8326 76.1138 28.1705C76.6422 28.6902 77.4738 28.9501 78.6086 28.9501C80.4018 28.9501 81.5755 28.3177 82.1299 27.053C82.4591 26.308 82.6107 24.9783 82.5847 23.0639C82.1169 23.7743 81.5539 24.3027 80.8955 24.6492C80.2372 24.9957 79.3666 25.1689 78.2838 25.1689C76.7765 25.1689 75.4555 24.6362 74.3207 23.5707C73.1945 22.4965 72.6315 20.7251 72.6315 18.2562C72.6315 15.926 73.1989 14.1069 74.3337 12.7989C75.4771 11.4908 76.8545 10.8368 78.4657 10.8368ZM82.6757 17.9834C82.6757 16.2595 82.3205 14.9818 81.6102 14.1502C80.8998 13.3186 79.9946 12.9028 78.8945 12.9028C77.2486 12.9028 76.1225 13.6738 75.5161 15.2157C75.1956 16.0386 75.0353 17.1171 75.0353 18.4511C75.0353 20.0191 75.3515 21.2145 75.9839 22.0374C76.6249 22.8517 77.4825 23.2588 78.5566 23.2588C80.2372 23.2588 81.4196 22.5009 82.1039 20.9849C82.4851 20.1273 82.6757 19.1268 82.6757 17.9834ZM100.935 5.39242C103.352 5.39242 105.227 6.02911 106.561 7.3025C107.895 8.57589 108.636 10.0225 108.783 11.6424H106.262C105.977 10.4123 105.405 9.43781 104.547 8.71882C103.698 7.99983 102.503 7.64034 100.961 7.64034C99.0812 7.64034 97.561 8.30302 96.4002 9.62838C95.2481 10.9451 94.672 12.9678 94.672 15.6965C94.672 17.9314 95.1918 19.7462 96.2313 21.1409C97.2794 22.5269 98.8387 23.2199 100.909 23.2199C102.815 23.2199 104.266 22.4879 105.262 21.0239C105.79 20.2529 106.184 19.2394 106.444 17.9834H108.965C108.74 19.9931 107.995 21.6779 106.73 23.0379C105.214 24.6752 103.17 25.4938 100.597 25.4938C98.3796 25.4938 96.5171 24.8224 95.0099 23.4797C93.0261 21.7039 92.0343 18.9622 92.0343 15.2547C92.0343 12.4394 92.7793 10.1308 94.2692 8.32901C95.8804 6.37128 98.1024 5.39242 100.935 5.39242ZM116.269 23.4927C117.819 23.4927 118.88 22.908 119.452 21.7386C120.033 20.5605 120.323 19.2524 120.323 17.8145C120.323 16.5151 120.115 15.4582 119.699 14.644C119.041 13.3619 117.906 12.7209 116.295 12.7209C114.865 12.7209 113.826 13.2666 113.176 14.3581C112.526 15.4496 112.202 16.7663 112.202 18.3082C112.202 19.7895 112.526 21.0239 113.176 22.0114C113.826 22.999 114.857 23.4927 116.269 23.4927ZM116.36 10.6809C118.153 10.6809 119.669 11.2786 120.907 12.474C122.146 13.6694 122.766 15.4279 122.766 17.7495C122.766 19.9931 122.22 21.8468 121.128 23.3108C120.037 24.7748 118.343 25.5068 116.048 25.5068C114.133 25.5068 112.613 24.8614 111.487 23.5707C110.361 22.2713 109.798 20.5301 109.798 18.3472C109.798 16.0083 110.391 14.1459 111.578 12.7599C112.765 11.3739 114.359 10.6809 116.36 10.6809Z" fill="white"/>
<path d="M127.382 5.96929L127.934 7.51887L128.493 5.96929H129.108V8.13393H128.711V6.38729L128.111 8.13393H127.764L127.161 6.38729V8.13393H126.764V5.96929H127.382ZM124.552 6.33056V5.96929H126.397V6.33056H125.689V8.13393H125.259V6.33056H124.552Z" fill="white"/>
</svg>
